<svg xmlns="http://www.w3.org/2000/svg" 
xml:space="preserve" 
width="1400" height="600" 
data-id="lg_L57C6SJZ830Om9GAOY" 
data-version="1" viewBox="0 0 2000 562">
<g data-padding="20">
<g transform="translate(10 10)scale(.96441)">
<path fill="#05124f" d="M1026.531.243a280.757 280.757 0 1 0 0 561.514 280.757 280.757 0 1 0 0-561.514">
</path>
<rect width="367.878" 
height="520.93" x="674.143" y="-259.316" 
fill="none" rx="0" ry="0" transform="matrix(.87 0 0 .87 280 280)">
</rect>
<path fill="#d4a50b" d="M1165.741 406.71h-81.6v-7.2h18.8q5.6 0 5.6-4.8V190.32l-83.59 216.39h-13.6l-83.6-210.39v197.59q0 5.6 5.6 5.6h18.8v7.2h-62.4v-7.2h18.8q5.6 0 5.6-5.6V166.72q0-4.8-5.6-4.8h-18.8v-7.2h57.2l81.6 206.79 79.99-206.79h57.2v7.2h-18.8q-5.6 0-5.6 5.6v227.19q0 4.8 5.6 4.8h18.8Z"></path></g>
<path fill="transparent" stroke="transparent" d="M719 0h562v562H719z"></path></g></svg>